<?xml version="1.0" standalone="no"?>
<!DOCTYPE svg PUBLIC "-//W3C//DTD SVG 1.1//EN"
  "http://www.w3.org/Graphics/SVG/1.1/DTD/svg11.dtd">
<!-- Created with matplotlib (http://matplotlib.sourceforge.net/) -->
<svg width="476pt" height="382pt" viewBox="0 0 476 382"
   xmlns="http://www.w3.org/2000/svg"
   xmlns:xlink="http://www.w3.org/1999/xlink"
   version="1.1"
   id="svg1">
<filter id="colorAdd"><feComposite in="SourceGraphic" in2="BackgroundImage" operator="arithmetic" k2="1" k3="1"/></filter>
<g id="figure1">
<g id="patch1">
<path style="fill: #ffffff; stroke: #ffffff; stroke-width: 1.000000; stroke-linejoin: round; stroke-linecap: square;  opacity: 1.000000"  d="M-0.000000 383.000000L476.800000 383.000000L476.800000 0.000000
L-0.000000 0.000000z"/>
</g>
<g id="axes1">
<g id="patch2">
<path style="fill: #ffffff; opacity: 1.000000"  d="M7.200000 375.800000L453.600000 375.800000L453.600000 30.200000
L7.200000 30.200000z"/>
</g>
<g id="matplotlib.axis1">
<g id="xtick1">
<g id="line2d1">
<defs><path id="m30e32995789d870ad79a2e54c91cf9c6" d="M0.000000 0.000000L0.000000 -4.000000"/></defs>
<g ><use style="fill: none; stroke: #000000; stroke-width: 0.500000; stroke-linejoin: round; stroke-linecap: butt;  opacity: 1.000000" xlink:href="#m30e32995789d870ad79a2e54c91cf9c6" x="46.413327" y="203.000000"/>
</g></g>
<g id="text1">
<defs>
<path id="c_7b26b13f539f13a4c64eef23b6952d29" d="M4.890625 -31.390625l26.312500 0.000000l0.000000 8.000000l-26.312500 0.000000z"/>
<path id="c_3dcfa38a02242cb63ec6726c6e70be7a" d="M40.578125 -39.312500q7.078125 1.515625 11.046875 6.312500q3.984375 4.781250 3.984375 11.812500q0.000000 10.781250 -7.421875 16.703125q-7.421875 5.906250 -21.093750 5.906250q-4.578125 0.000000 -9.437500 -0.906250q-4.859375 -0.906250 -10.031250 -2.718750l0.000000 -9.515625q4.093750 2.390625 8.968750 3.609375q4.890625 1.218750 10.218750 1.218750q9.265625 0.000000 14.125000 -3.656250q4.859375 -3.656250 4.859375 -10.640625q0.000000 -6.453125 -4.515625 -10.078125q-4.515625 -3.640625 -12.562500 -3.640625l-8.500000 0.000000l0.000000 -8.109375l8.890625 0.000000q7.265625 0.000000 11.125000 -2.906250q3.859375 -2.906250 3.859375 -8.375000q0.000000 -5.609375 -3.984375 -8.609375q-3.968750 -3.015625 -11.390625 -3.015625q-4.062500 0.000000 -8.703125 0.890625q-4.640625 0.875000 -10.203125 2.718750l0.000000 -8.781250q5.625000 -1.562500 10.531250 -2.343750q4.906250 -0.781250 9.250000 -0.781250q11.234375 0.000000 17.765625 5.109375q6.546875 5.093750 6.546875 13.781250q0.000000 6.062500 -3.468750 10.234375q-3.468750 4.171875 -9.859375 5.781250"/>
</defs>
<g style="fill: #000000; opacity: 1.000000" transform="translate(40.343015,217.390625)scale(0.140000)">
<use xlink:href="#c_7b26b13f539f13a4c64eef23b6952d29"/>
<use xlink:href="#c_3dcfa38a02242cb63ec6726c6e70be7a" x="36.083984"/>
</g>
</g>
</g>
<g id="xtick2">
<g id="line2d2">
<g ><use style="fill: none; stroke: #000000; stroke-width: 0.500000; stroke-linejoin: round; stroke-linecap: butt;  opacity: 1.000000" xlink:href="#m30e32995789d870ad79a2e54c91cf9c6" x="107.670751" y="203.000000"/>
</g></g>
<g id="text2">
<defs>
<path id="c_ed3f3ed3ebfbd18bcb9c012009a68ad1" d="M19.187500 -8.296875l34.421875 0.000000l0.000000 8.296875l-46.281250 0.000000l0.000000 -8.296875q5.609375 -5.812500 15.296875 -15.593750q9.703125 -9.796875 12.187500 -12.640625q4.734375 -5.312500 6.609375 -9.000000q1.890625 -3.687500 1.890625 -7.250000q0.000000 -5.812500 -4.078125 -9.468750q-4.078125 -3.671875 -10.625000 -3.671875q-4.640625 0.000000 -9.796875 1.609375q-5.140625 1.609375 -11.000000 4.890625l0.000000 -9.968750q5.953125 -2.390625 11.125000 -3.609375q5.187500 -1.218750 9.484375 -1.218750q11.328125 0.000000 18.062500 5.671875q6.734375 5.656250 6.734375 15.125000q0.000000 4.500000 -1.687500 8.531250q-1.671875 4.015625 -6.125000 9.484375q-1.218750 1.421875 -7.765625 8.187500q-6.531250 6.765625 -18.453125 18.921875"/>
</defs>
<g style="fill: #000000; opacity: 1.000000" transform="translate(101.741064,217.390625)scale(0.140000)">
<use xlink:href="#c_7b26b13f539f13a4c64eef23b6952d29"/>
<use xlink:href="#c_ed3f3ed3ebfbd18bcb9c012009a68ad1" x="36.083984"/>
</g>
</g>
</g>
<g id="xtick3">
<g id="line2d3">
<g ><use style="fill: none; stroke: #000000; stroke-width: 0.500000; stroke-linejoin: round; stroke-linecap: butt;  opacity: 1.000000" xlink:href="#m30e32995789d870ad79a2e54c91cf9c6" x="168.928175" y="203.000000"/>
</g></g>
<g id="text3">
<defs>
<path id="c_42baa63129a918535c52adb20d687ea7" d="M12.406250 -8.296875l16.109375 0.000000l0.000000 -55.625000l-17.531250 3.515625l0.000000 -8.984375l17.437500 -3.515625l9.859375 0.000000l0.000000 64.609375l16.109375 0.000000l0.000000 8.296875l-41.984375 0.000000z"/>
</defs>
<g style="fill: #000000; opacity: 1.000000" transform="translate(162.943800,217.203125)scale(0.140000)">
<use xlink:href="#c_7b26b13f539f13a4c64eef23b6952d29"/>
<use xlink:href="#c_42baa63129a918535c52adb20d687ea7" x="36.083984"/>
</g>
</g>
</g>
<g id="xtick4">
<g id="line2d4">
<g ><use style="fill: none; stroke: #000000; stroke-width: 0.500000; stroke-linejoin: round; stroke-linecap: butt;  opacity: 1.000000" xlink:href="#m30e32995789d870ad79a2e54c91cf9c6" x="230.185599" y="203.000000"/>
</g></g>
</g>
<g id="xtick5">
<g id="line2d5">
<g ><use style="fill: none; stroke: #000000; stroke-width: 0.500000; stroke-linejoin: round; stroke-linecap: butt;  opacity: 1.000000" xlink:href="#m30e32995789d870ad79a2e54c91cf9c6" x="291.443023" y="203.000000"/>
</g></g>
<g id="text4">
<g style="fill: #000000; opacity: 1.000000" transform="translate(288.411773,217.203125)scale(0.140000)">
<use xlink:href="#c_42baa63129a918535c52adb20d687ea7"/>
</g>
</g>
</g>
<g id="xtick6">
<g id="line2d6">
<g ><use style="fill: none; stroke: #000000; stroke-width: 0.500000; stroke-linejoin: round; stroke-linecap: butt;  opacity: 1.000000" xlink:href="#m30e32995789d870ad79a2e54c91cf9c6" x="352.700447" y="203.000000"/>
</g></g>
<g id="text5">
<g style="fill: #000000; opacity: 1.000000" transform="translate(349.466072,217.390625)scale(0.140000)">
<use xlink:href="#c_ed3f3ed3ebfbd18bcb9c012009a68ad1"/>
</g>
</g>
</g>
<g id="xtick7">
<g id="line2d7">
<g ><use style="fill: none; stroke: #000000; stroke-width: 0.500000; stroke-linejoin: round; stroke-linecap: butt;  opacity: 1.000000" xlink:href="#m30e32995789d870ad79a2e54c91cf9c6" x="413.957871" y="203.000000"/>
</g></g>
<g id="text6">
<g style="fill: #000000; opacity: 1.000000" transform="translate(410.598496,217.390625)scale(0.140000)">
<use xlink:href="#c_3dcfa38a02242cb63ec6726c6e70be7a"/>
</g>
</g>
</g>
<g id="xtick8">
<g id="line2d8">
<defs><path id="m3b2d125790092c17af877e29e2858cbc" d="M0.000000 0.000000L0.000000 -2.000000"/></defs>
<g ><use style="fill: none; stroke: #000000; stroke-width: 0.500000; stroke-linejoin: round; stroke-linecap: butt;  opacity: 1.000000" xlink:href="#m3b2d125790092c17af877e29e2858cbc" x="15.784615" y="203.000000"/>
</g></g>
</g>
<g id="xtick9">
<g id="line2d9">
<g ><use style="fill: none; stroke: #000000; stroke-width: 0.500000; stroke-linejoin: round; stroke-linecap: butt;  opacity: 1.000000" xlink:href="#m3b2d125790092c17af877e29e2858cbc" x="31.098971" y="203.000000"/>
</g></g>
</g>
<g id="xtick10">
<g id="line2d10">
<g ><use style="fill: none; stroke: #000000; stroke-width: 0.500000; stroke-linejoin: round; stroke-linecap: butt;  opacity: 1.000000" xlink:href="#m3b2d125790092c17af877e29e2858cbc" x="61.727683" y="203.000000"/>
</g></g>
</g>
<g id="xtick11">
<g id="line2d11">
<g ><use style="fill: none; stroke: #000000; stroke-width: 0.500000; stroke-linejoin: round; stroke-linecap: butt;  opacity: 1.000000" xlink:href="#m3b2d125790092c17af877e29e2858cbc" x="77.042039" y="203.000000"/>
</g></g>
</g>
<g id="xtick12">
<g id="line2d12">
<g ><use style="fill: none; stroke: #000000; stroke-width: 0.500000; stroke-linejoin: round; stroke-linecap: butt;  opacity: 1.000000" xlink:href="#m3b2d125790092c17af877e29e2858cbc" x="92.356395" y="203.000000"/>
</g></g>
</g>
<g id="xtick13">
<g id="line2d13">
<g ><use style="fill: none; stroke: #000000; stroke-width: 0.500000; stroke-linejoin: round; stroke-linecap: butt;  opacity: 1.000000" xlink:href="#m3b2d125790092c17af877e29e2858cbc" x="122.985107" y="203.000000"/>
</g></g>
</g>
<g id="xtick14">
<g id="line2d14">
<g ><use style="fill: none; stroke: #000000; stroke-width: 0.500000; stroke-linejoin: round; stroke-linecap: butt;  opacity: 1.000000" xlink:href="#m3b2d125790092c17af877e29e2858cbc" x="138.299463" y="203.000000"/>
</g></g>
</g>
<g id="xtick15">
<g id="line2d15">
<g ><use style="fill: none; stroke: #000000; stroke-width: 0.500000; stroke-linejoin: round; stroke-linecap: butt;  opacity: 1.000000" xlink:href="#m3b2d125790092c17af877e29e2858cbc" x="153.613819" y="203.000000"/>
</g></g>
</g>
<g id="xtick16">
<g id="line2d16">
<g ><use style="fill: none; stroke: #000000; stroke-width: 0.500000; stroke-linejoin: round; stroke-linecap: butt;  opacity: 1.000000" xlink:href="#m3b2d125790092c17af877e29e2858cbc" x="184.242531" y="203.000000"/>
</g></g>
</g>
<g id="xtick17">
<g id="line2d17">
<g ><use style="fill: none; stroke: #000000; stroke-width: 0.500000; stroke-linejoin: round; stroke-linecap: butt;  opacity: 1.000000" xlink:href="#m3b2d125790092c17af877e29e2858cbc" x="199.556887" y="203.000000"/>
</g></g>
</g>
<g id="xtick18">
<g id="line2d18">
<g ><use style="fill: none; stroke: #000000; stroke-width: 0.500000; stroke-linejoin: round; stroke-linecap: butt;  opacity: 1.000000" xlink:href="#m3b2d125790092c17af877e29e2858cbc" x="214.871243" y="203.000000"/>
</g></g>
</g>
<g id="xtick19">
<g id="line2d19">
<g ><use style="fill: none; stroke: #000000; stroke-width: 0.500000; stroke-linejoin: round; stroke-linecap: butt;  opacity: 1.000000" xlink:href="#m3b2d125790092c17af877e29e2858cbc" x="245.499955" y="203.000000"/>
</g></g>
</g>
<g id="xtick20">
<g id="line2d20">
<g ><use style="fill: none; stroke: #000000; stroke-width: 0.500000; stroke-linejoin: round; stroke-linecap: butt;  opacity: 1.000000" xlink:href="#m3b2d125790092c17af877e29e2858cbc" x="260.814311" y="203.000000"/>
</g></g>
</g>
<g id="xtick21">
<g id="line2d21">
<g ><use style="fill: none; stroke: #000000; stroke-width: 0.500000; stroke-linejoin: round; stroke-linecap: butt;  opacity: 1.000000" xlink:href="#m3b2d125790092c17af877e29e2858cbc" x="276.128667" y="203.000000"/>
</g></g>
</g>
<g id="xtick22">
<g id="line2d22">
<g ><use style="fill: none; stroke: #000000; stroke-width: 0.500000; stroke-linejoin: round; stroke-linecap: butt;  opacity: 1.000000" xlink:href="#m3b2d125790092c17af877e29e2858cbc" x="306.757379" y="203.000000"/>
</g></g>
</g>
<g id="xtick23">
<g id="line2d23">
<g ><use style="fill: none; stroke: #000000; stroke-width: 0.500000; stroke-linejoin: round; stroke-linecap: butt;  opacity: 1.000000" xlink:href="#m3b2d125790092c17af877e29e2858cbc" x="322.071735" y="203.000000"/>
</g></g>
</g>
<g id="xtick24">
<g id="line2d24">
<g ><use style="fill: none; stroke: #000000; stroke-width: 0.500000; stroke-linejoin: round; stroke-linecap: butt;  opacity: 1.000000" xlink:href="#m3b2d125790092c17af877e29e2858cbc" x="337.386091" y="203.000000"/>
</g></g>
</g>
<g id="xtick25">
<g id="line2d25">
<g ><use style="fill: none; stroke: #000000; stroke-width: 0.500000; stroke-linejoin: round; stroke-linecap: butt;  opacity: 1.000000" xlink:href="#m3b2d125790092c17af877e29e2858cbc" x="368.014803" y="203.000000"/>
</g></g>
</g>
<g id="xtick26">
<g id="line2d26">
<g ><use style="fill: none; stroke: #000000; stroke-width: 0.500000; stroke-linejoin: round; stroke-linecap: butt;  opacity: 1.000000" xlink:href="#m3b2d125790092c17af877e29e2858cbc" x="383.329159" y="203.000000"/>
</g></g>
</g>
<g id="xtick27">
<g id="line2d27">
<g ><use style="fill: none; stroke: #000000; stroke-width: 0.500000; stroke-linejoin: round; stroke-linecap: butt;  opacity: 1.000000" xlink:href="#m3b2d125790092c17af877e29e2858cbc" x="398.643515" y="203.000000"/>
</g></g>
</g>
<g id="xtick28">
<g id="line2d28">
<g ><use style="fill: none; stroke: #000000; stroke-width: 0.500000; stroke-linejoin: round; stroke-linecap: butt;  opacity: 1.000000" xlink:href="#m3b2d125790092c17af877e29e2858cbc" x="429.272227" y="203.000000"/>
</g></g>
</g>
<g id="xtick29">
<g id="line2d29">
<g ><use style="fill: none; stroke: #000000; stroke-width: 0.500000; stroke-linejoin: round; stroke-linecap: butt;  opacity: 1.000000" xlink:href="#m3b2d125790092c17af877e29e2858cbc" x="444.586583" y="203.000000"/>
</g></g>
</g>
<g id="text7">
<defs>
<path id="c_277960698c3e9ebfcde4d2161536ce57" d="M7.812500 -2.875000q1.765625 1.359375 4.984375 1.359375q3.125000 0.000000 5.515625 -3.000000q2.390625 -3.000000 3.265625 -6.562500l4.546875 -17.734375q1.078125 -4.828125 1.078125 -6.593750q0.000000 -2.484375 -1.390625 -4.343750q-1.390625 -1.859375 -3.890625 -1.859375q-3.171875 0.000000 -5.953125 1.984375q-2.781250 1.984375 -4.687500 5.031250q-1.906250 3.046875 -2.687500 6.171875q-0.187500 0.640625 -0.781250 0.640625l-1.218750 0.000000q-0.781250 0.000000 -0.781250 -0.937500l0.000000 -0.281250q0.968750 -3.718750 3.312500 -7.250000q2.343750 -3.546875 5.734375 -5.734375q3.406250 -2.203125 7.265625 -2.203125q3.656250 0.000000 6.609375 1.953125q2.953125 1.953125 4.171875 5.312500q1.718750 -3.062500 4.375000 -5.156250q2.656250 -2.109375 5.828125 -2.109375q2.156250 0.000000 4.390625 0.765625q2.250000 0.750000 3.671875 2.312500q1.421875 1.562500 1.421875 3.906250q0.000000 2.531250 -1.640625 4.375000q-1.640625 1.828125 -4.171875 1.828125q-1.609375 0.000000 -2.687500 -1.031250q-1.078125 -1.031250 -1.078125 -2.593750q0.000000 -2.093750 1.437500 -3.671875q1.453125 -1.593750 3.453125 -1.890625q-1.812500 -1.421875 -4.984375 -1.421875q-3.218750 0.000000 -5.593750 2.984375q-2.359375 2.984375 -3.343750 6.640625l-4.390625 17.671875q-1.078125 4.015625 -1.078125 6.593750q0.000000 2.546875 1.437500 4.375000q1.437500 1.828125 3.843750 1.828125q4.687500 0.000000 8.359375 -4.125000q3.687500 -4.125000 4.859375 -9.062500q0.203125 -0.578125 0.781250 -0.578125l1.234375 0.000000q0.390625 0.000000 0.625000 0.265625q0.250000 0.265625 0.250000 0.609375q0.000000 0.093750 -0.093750 0.296875q-1.421875 5.953125 -5.968750 10.593750q-4.531250 4.640625 -10.250000 4.640625q-3.656250 0.000000 -6.609375 -1.968750q-2.953125 -1.984375 -4.187500 -5.359375q-1.562500 2.937500 -4.328125 5.140625q-2.750000 2.187500 -5.875000 2.187500q-2.140625 0.000000 -4.421875 -0.765625q-2.265625 -0.750000 -3.687500 -2.312500q-1.406250 -1.562500 -1.406250 -3.953125q0.000000 -2.343750 1.625000 -4.265625q1.640625 -1.937500 4.093750 -1.937500q1.656250 0.000000 2.781250 1.000000q1.125000 1.000000 1.125000 2.609375q0.000000 2.109375 -1.406250 3.671875q-1.390625 1.562500 -3.484375 1.953125"/>
</defs>
<g id="mathtext1">
<g style="fill: #000000" transform="translate(461.600000,204.000000)">
<use xlink:href="#c_277960698c3e9ebfcde4d2161536ce57" transform="translate(0.000000,-1.812500)scale(0.140000)"/>
</g>
</g>
</g>
</g>
<g id="matplotlib.axis2">
<g id="ytick1">
<g id="line2d30">
<defs><path id="m3400efa6b1638b3fea9e19e898273957" d="M0.000000 0.000000L4.000000 0.000000"/></defs>
<g ><use style="fill: none; stroke: #000000; stroke-width: 0.500000; stroke-linejoin: round; stroke-linecap: butt;  opacity: 1.000000" xlink:href="#m3400efa6b1638b3fea9e19e898273957" x="230.185599" y="369.153846"/>
</g></g>
<g id="text8">
<g style="fill: #000000; opacity: 1.000000" transform="translate(214.044974,374.247596)scale(0.140000)">
<use xlink:href="#c_7b26b13f539f13a4c64eef23b6952d29"/>
<use xlink:href="#c_3dcfa38a02242cb63ec6726c6e70be7a" x="36.083984"/>
</g>
</g>
</g>
<g id="ytick2">
<g id="line2d31">
<g ><use style="fill: none; stroke: #000000; stroke-width: 0.500000; stroke-linejoin: round; stroke-linecap: butt;  opacity: 1.000000" xlink:href="#m3400efa6b1638b3fea9e19e898273957" x="230.185599" y="313.769231"/>
</g></g>
<g id="text9">
<g style="fill: #000000; opacity: 1.000000" transform="translate(214.326224,318.964543)scale(0.140000)">
<use xlink:href="#c_7b26b13f539f13a4c64eef23b6952d29"/>
<use xlink:href="#c_ed3f3ed3ebfbd18bcb9c012009a68ad1" x="36.083984"/>
</g>
</g>
</g>
<g id="ytick3">
<g id="line2d32">
<g ><use style="fill: none; stroke: #000000; stroke-width: 0.500000; stroke-linejoin: round; stroke-linecap: butt;  opacity: 1.000000" xlink:href="#m3400efa6b1638b3fea9e19e898273957" x="230.185599" y="258.384615"/>
</g></g>
<g id="text10">
<g style="fill: #000000; opacity: 1.000000" transform="translate(214.216849,263.486178)scale(0.140000)">
<use xlink:href="#c_7b26b13f539f13a4c64eef23b6952d29"/>
<use xlink:href="#c_42baa63129a918535c52adb20d687ea7" x="36.083984"/>
</g>
</g>
</g>
<g id="ytick4">
<g id="line2d33">
<g ><use style="fill: none; stroke: #000000; stroke-width: 0.500000; stroke-linejoin: round; stroke-linecap: butt;  opacity: 1.000000" xlink:href="#m3400efa6b1638b3fea9e19e898273957" x="230.185599" y="203.000000"/>
</g></g>
</g>
<g id="ytick5">
<g id="line2d34">
<g ><use style="fill: none; stroke: #000000; stroke-width: 0.500000; stroke-linejoin: round; stroke-linecap: butt;  opacity: 1.000000" xlink:href="#m3400efa6b1638b3fea9e19e898273957" x="230.185599" y="147.615385"/>
</g></g>
<g id="text11">
<g style="fill: #000000; opacity: 1.000000" transform="translate(220.123099,152.716947)scale(0.140000)">
<use xlink:href="#c_42baa63129a918535c52adb20d687ea7"/>
</g>
</g>
</g>
<g id="ytick6">
<g id="line2d35">
<g ><use style="fill: none; stroke: #000000; stroke-width: 0.500000; stroke-linejoin: round; stroke-linecap: butt;  opacity: 1.000000" xlink:href="#m3400efa6b1638b3fea9e19e898273957" x="230.185599" y="92.230769"/>
</g></g>
<g id="text12">
<g style="fill: #000000; opacity: 1.000000" transform="translate(219.716849,97.426082)scale(0.140000)">
<use xlink:href="#c_ed3f3ed3ebfbd18bcb9c012009a68ad1"/>
</g>
</g>
</g>
<g id="ytick7">
<g id="line2d36">
<g ><use style="fill: none; stroke: #000000; stroke-width: 0.500000; stroke-linejoin: round; stroke-linecap: butt;  opacity: 1.000000" xlink:href="#m3400efa6b1638b3fea9e19e898273957" x="230.185599" y="36.846154"/>
</g></g>
<g id="text13">
<g style="fill: #000000; opacity: 1.000000" transform="translate(219.466849,41.939904)scale(0.140000)">
<use xlink:href="#c_3dcfa38a02242cb63ec6726c6e70be7a"/>
</g>
</g>
</g>
<g id="ytick8">
<g id="line2d37">
<defs><path id="mb39cfcf7402899e54c4d755745537394" d="M0.000000 0.000000L2.000000 0.000000"/></defs>
<g ><use style="fill: none; stroke: #000000; stroke-width: 0.500000; stroke-linejoin: round; stroke-linecap: butt;  opacity: 1.000000" xlink:href="#mb39cfcf7402899e54c4d755745537394" x="230.185599" y="355.307692"/>
</g></g>
</g>
<g id="ytick9">
<g id="line2d38">
<g ><use style="fill: none; stroke: #000000; stroke-width: 0.500000; stroke-linejoin: round; stroke-linecap: butt;  opacity: 1.000000" xlink:href="#mb39cfcf7402899e54c4d755745537394" x="230.185599" y="341.461538"/>
</g></g>
</g>
<g id="ytick10">
<g id="line2d39">
<g ><use style="fill: none; stroke: #000000; stroke-width: 0.500000; stroke-linejoin: round; stroke-linecap: butt;  opacity: 1.000000" xlink:href="#mb39cfcf7402899e54c4d755745537394" x="230.185599" y="327.615385"/>
</g></g>
</g>
<g id="ytick11">
<g id="line2d40">
<g ><use style="fill: none; stroke: #000000; stroke-width: 0.500000; stroke-linejoin: round; stroke-linecap: butt;  opacity: 1.000000" xlink:href="#mb39cfcf7402899e54c4d755745537394" x="230.185599" y="299.923077"/>
</g></g>
</g>
<g id="ytick12">
<g id="line2d41">
<g ><use style="fill: none; stroke: #000000; stroke-width: 0.500000; stroke-linejoin: round; stroke-linecap: butt;  opacity: 1.000000" xlink:href="#mb39cfcf7402899e54c4d755745537394" x="230.185599" y="286.076923"/>
</g></g>
</g>
<g id="ytick13">
<g id="line2d42">
<g ><use style="fill: none; stroke: #000000; stroke-width: 0.500000; stroke-linejoin: round; stroke-linecap: butt;  opacity: 1.000000" xlink:href="#mb39cfcf7402899e54c4d755745537394" x="230.185599" y="272.230769"/>
</g></g>
</g>
<g id="ytick14">
<g id="line2d43">
<g ><use style="fill: none; stroke: #000000; stroke-width: 0.500000; stroke-linejoin: round; stroke-linecap: butt;  opacity: 1.000000" xlink:href="#mb39cfcf7402899e54c4d755745537394" x="230.185599" y="244.538462"/>
</g></g>
</g>
<g id="ytick15">
<g id="line2d44">
<g ><use style="fill: none; stroke: #000000; stroke-width: 0.500000; stroke-linejoin: round; stroke-linecap: butt;  opacity: 1.000000" xlink:href="#mb39cfcf7402899e54c4d755745537394" x="230.185599" y="230.692308"/>
</g></g>
</g>
<g id="ytick16">
<g id="line2d45">
<g ><use style="fill: none; stroke: #000000; stroke-width: 0.500000; stroke-linejoin: round; stroke-linecap: butt;  opacity: 1.000000" xlink:href="#mb39cfcf7402899e54c4d755745537394" x="230.185599" y="216.846154"/>
</g></g>
</g>
<g id="ytick17">
<g id="line2d46">
<g ><use style="fill: none; stroke: #000000; stroke-width: 0.500000; stroke-linejoin: round; stroke-linecap: butt;  opacity: 1.000000" xlink:href="#mb39cfcf7402899e54c4d755745537394" x="230.185599" y="189.153846"/>
</g></g>
</g>
<g id="ytick18">
<g id="line2d47">
<g ><use style="fill: none; stroke: #000000; stroke-width: 0.500000; stroke-linejoin: round; stroke-linecap: butt;  opacity: 1.000000" xlink:href="#mb39cfcf7402899e54c4d755745537394" x="230.185599" y="175.307692"/>
</g></g>
</g>
<g id="ytick19">
<g id="line2d48">
<g ><use style="fill: none; stroke: #000000; stroke-width: 0.500000; stroke-linejoin: round; stroke-linecap: butt;  opacity: 1.000000" xlink:href="#mb39cfcf7402899e54c4d755745537394" x="230.185599" y="161.461538"/>
</g></g>
</g>
<g id="ytick20">
<g id="line2d49">
<g ><use style="fill: none; stroke: #000000; stroke-width: 0.500000; stroke-linejoin: round; stroke-linecap: butt;  opacity: 1.000000" xlink:href="#mb39cfcf7402899e54c4d755745537394" x="230.185599" y="133.769231"/>
</g></g>
</g>
<g id="ytick21">
<g id="line2d50">
<g ><use style="fill: none; stroke: #000000; stroke-width: 0.500000; stroke-linejoin: round; stroke-linecap: butt;  opacity: 1.000000" xlink:href="#mb39cfcf7402899e54c4d755745537394" x="230.185599" y="119.923077"/>
</g></g>
</g>
<g id="ytick22">
<g id="line2d51">
<g ><use style="fill: none; stroke: #000000; stroke-width: 0.500000; stroke-linejoin: round; stroke-linecap: butt;  opacity: 1.000000" xlink:href="#mb39cfcf7402899e54c4d755745537394" x="230.185599" y="106.076923"/>
</g></g>
</g>
<g id="ytick23">
<g id="line2d52">
<g ><use style="fill: none; stroke: #000000; stroke-width: 0.500000; stroke-linejoin: round; stroke-linecap: butt;  opacity: 1.000000" xlink:href="#mb39cfcf7402899e54c4d755745537394" x="230.185599" y="78.384615"/>
</g></g>
</g>
<g id="ytick24">
<g id="line2d53">
<g ><use style="fill: none; stroke: #000000; stroke-width: 0.500000; stroke-linejoin: round; stroke-linecap: butt;  opacity: 1.000000" xlink:href="#mb39cfcf7402899e54c4d755745537394" x="230.185599" y="64.538462"/>
</g></g>
</g>
<g id="ytick25">
<g id="line2d54">
<g ><use style="fill: none; stroke: #000000; stroke-width: 0.500000; stroke-linejoin: round; stroke-linecap: butt;  opacity: 1.000000" xlink:href="#mb39cfcf7402899e54c4d755745537394" x="230.185599" y="50.692308"/>
</g></g>
</g>
<g id="text14">
<defs>
<path id="c_f29dbb720c0206d930ab49b6b497324a" d="M2.984375 -0.000000l0.000000 -3.515625q3.406250 0.000000 5.609375 -0.531250q2.203125 -0.546875 2.203125 -2.640625l0.000000 -27.296875q0.000000 -2.687500 -0.812500 -3.875000q-0.796875 -1.203125 -2.312500 -1.468750q-1.515625 -0.265625 -4.687500 -0.265625l0.000000 -3.515625l14.500000 -1.078125l0.000000 9.765625q2.000000 -4.296875 5.921875 -7.031250q3.937500 -2.734375 8.578125 -2.734375q6.937500 0.000000 10.421875 3.328125q3.500000 3.312500 3.500000 10.140625l0.000000 24.031250q0.000000 2.093750 2.187500 2.640625q2.203125 0.531250 5.625000 0.531250l0.000000 3.515625l-22.906250 0.000000l0.000000 -3.515625q3.421875 0.000000 5.609375 -0.531250q2.203125 -0.546875 2.203125 -2.640625l0.000000 -23.734375q0.000000 -4.875000 -1.421875 -8.031250q-1.406250 -3.156250 -5.812500 -3.156250q-5.796875 0.000000 -9.546875 4.640625q-3.734375 4.640625 -3.734375 10.546875l0.000000 19.734375q0.000000 2.093750 2.203125 2.640625q2.203125 0.531250 5.562500 0.531250l0.000000 3.515625z"/>
<path id="c_47bb69df3dc90fb95dede367e92e714c" d="M3.078125 -0.000000l0.000000 -3.515625q3.421875 0.000000 5.609375 -0.531250q2.203125 -0.546875 2.203125 -2.640625l0.000000 -27.296875q0.000000 -3.859375 -1.500000 -4.734375q-1.484375 -0.875000 -5.875000 -0.875000l0.000000 -3.515625l14.406250 -1.078125l0.000000 37.500000q0.000000 2.093750 1.906250 2.640625q1.906250 0.531250 5.078125 0.531250l0.000000 3.515625zM7.328125 -61.375000q0.000000 -2.203125 1.656250 -3.859375q1.656250 -1.656250 3.812500 -1.656250q1.406250 0.000000 2.718750 0.734375q1.328125 0.718750 2.062500 2.046875q0.734375 1.312500 0.734375 2.734375q0.000000 2.140625 -1.671875 3.812500q-1.656250 1.656250 -3.843750 1.656250q-2.156250 0.000000 -3.812500 -1.656250q-1.656250 -1.671875 -1.656250 -3.812500"/>
<path id="c_cd2ed2b1f3b7c4afed18e4ba51c9e7c0" d="M10.203125 -12.015625l0.000000 -27.578125l-8.296875 0.000000l0.000000 -2.593750q6.546875 0.000000 9.609375 -6.093750q3.078125 -6.109375 3.078125 -13.250000l2.890625 0.000000l0.000000 18.421875l14.109375 0.000000l0.000000 3.515625l-14.109375 0.000000l0.000000 27.390625q0.000000 4.140625 1.390625 7.265625q1.390625 3.125000 5.000000 3.125000q3.421875 0.000000 4.937500 -3.296875q1.515625 -3.296875 1.515625 -7.093750l0.000000 -5.906250l2.875000 0.000000l0.000000 6.093750q0.000000 3.125000 -1.156250 6.187500q-1.140625 3.046875 -3.390625 5.000000q-2.234375 1.953125 -5.468750 1.953125q-6.000000 0.000000 -9.500000 -3.593750q-3.484375 -3.593750 -3.484375 -9.546875"/>
<path id="c_06a7a4502300c60b4feec85758ecf628" d="M31.000000 24.812500q-5.562500 -4.406250 -9.593750 -10.093750q-4.015625 -5.687500 -6.593750 -12.140625q-2.562500 -6.437500 -3.828125 -13.468750q-1.265625 -7.031250 -1.265625 -14.109375q0.000000 -7.171875 1.265625 -14.203125q1.265625 -7.031250 3.875000 -13.531250q2.625000 -6.500000 6.671875 -12.156250q4.062500 -5.671875 9.468750 -9.921875q0.000000 -0.187500 0.500000 -0.187500l0.921875 0.000000q0.296875 0.000000 0.531250 0.265625q0.250000 0.265625 0.250000 0.609375q0.000000 0.437500 -0.187500 0.640625q-4.890625 4.781250 -8.140625 10.250000q-3.250000 5.468750 -5.234375 11.656250q-1.968750 6.171875 -2.843750 12.796875q-0.875000 6.609375 -0.875000 13.781250q0.000000 31.781250 16.984375 48.296875q0.296875 0.281250 0.296875 0.828125q0.000000 0.234375 -0.265625 0.546875q-0.265625 0.328125 -0.515625 0.328125l-0.921875 0.000000q-0.500000 0.000000 -0.500000 -0.187500"/>
<path id="c_b865a8a4692360a5eaaff4ecf56eccf7" d="M6.500000 25.000000q-0.890625 0.000000 -0.890625 -0.875000q0.000000 -0.437500 0.203125 -0.640625q17.093750 -16.703125 17.093750 -48.484375q0.000000 -31.781250 -16.906250 -48.296875q-0.390625 -0.234375 -0.390625 -0.828125q0.000000 -0.343750 0.265625 -0.609375q0.281250 -0.265625 0.625000 -0.265625l0.921875 0.000000q0.296875 0.000000 0.484375 0.187500q7.187500 5.671875 11.968750 13.781250q4.781250 8.093750 7.000000 17.281250q2.234375 9.171875 2.234375 18.750000q0.000000 7.078125 -1.203125 13.937500q-1.203125 6.859375 -3.812500 13.515625q-2.609375 6.671875 -6.609375 12.312500q-4.000000 5.640625 -9.578125 10.046875q-0.187500 0.187500 -0.484375 0.187500z"/>
</defs>
<g id="mathtext2">
<g style="fill: #000000" transform="translate(208.185599,22.200000)">
<use xlink:href="#c_f29dbb720c0206d930ab49b6b497324a" transform="translate(0.000000,-4.500000)scale(0.140000)"/>
<use xlink:href="#c_47bb69df3dc90fb95dede367e92e714c" transform="translate(7.772461,-4.500000)scale(0.140000)"/>
<use xlink:href="#c_f29dbb720c0206d930ab49b6b497324a" transform="translate(11.648438,-4.500000)scale(0.140000)"/>
<use xlink:href="#c_cd2ed2b1f3b7c4afed18e4ba51c9e7c0" transform="translate(19.420898,-4.500000)scale(0.140000)"/>
<use xlink:href="#c_06a7a4502300c60b4feec85758ecf628" transform="translate(24.855469,-4.500000)scale(0.140000)"/>
<use xlink:href="#c_277960698c3e9ebfcde4d2161536ce57" transform="translate(30.290039,-4.500000)scale(0.140000)"/>
<use xlink:href="#c_b865a8a4692360a5eaaff4ecf56eccf7" transform="translate(38.281250,-4.500000)scale(0.140000)"/>
</g>
</g>
</g>
</g>
<g id="patch3">
<path style="fill: none; stroke: #000000; stroke-width: 0.800000; stroke-linejoin: round; stroke-linecap: square;  opacity: 1.000000"  d="M7.200000 203.000000L453.600000 203.000000"/>
</g>
<g id="patch4">
<path style="fill: none; stroke: #000000; stroke-width: 0.800000; stroke-linejoin: round; stroke-linecap: square;  opacity: 1.000000"  d="M230.185599 375.800000L230.185599 30.200000"/>
</g>
<g id="line2d55">
<defs>
  <clipPath id="paf7ee6c9eefab4474b66e77f2ed11cd9">
<rect x="7.200000" y="30.200000" width="446.400000" height="345.600000"/>
  </clipPath>
</defs><path style="fill: none; stroke: #0000ff; stroke-width: 1.500000; stroke-linejoin: round; stroke-linecap: square;  opacity: 1.000000" clip-path="url(#paf7ee6c9eefab4474b66e77f2ed11cd9)" d="M15.798015 369.153846L15.811416 369.153846L15.838216 369.153846
L15.891816 369.153846L15.999016 369.153846L16.213417 369.153846
L17.454566 369.153846L20.637526 369.153846L21.959722 369.153846
L24.793029 369.153846L27.115453 369.153846L28.471824 369.153846
L29.837609 369.153846L33.095518 369.153846L34.582675 369.153846
L38.026815 369.153846L39.186364 369.153846L41.936731 369.153846
L43.027533 369.153846L45.019656 369.153846L47.158648 369.153846
L50.676407 369.153846L51.931992 369.153846L55.069548 369.153846
L56.913008 369.153846L59.005774 369.153846L60.015381 369.153846
L64.001732 369.153846L64.916065 369.153846L66.778141 369.153846
L70.267577 369.153846L72.778035 369.153846L73.511050 369.153846
L75.919216 369.153846"/>
</g>
<g id="line2d56">
<path style="fill: none; stroke: #0000ff; stroke-width: 1.500000; stroke-linejoin: round; stroke-linecap: square;  opacity: 1.000000" clip-path="url(#paf7ee6c9eefab4474b66e77f2ed11cd9)" d="M77.068839 313.769231L77.095640 313.769231L77.149240 313.769231
L77.256440 313.769231L77.470841 313.769231L78.706791 313.769231
L81.125000 313.769231L81.756198 313.769231L83.954299 313.769231
L85.960090 313.769231L88.305744 313.769231L90.573554 313.769231
L93.776592 313.769231L94.920692 313.769231L97.271276 313.769231
L99.230829 313.769231L102.638166 313.769231L103.340912 313.769231
L105.990087 313.769231L108.008996 313.769231L110.060374 313.769231
L113.367356 313.769231L114.796133 313.769231L117.157917 313.769231
L119.543335 313.769231L122.272756 313.769231L122.968840 313.769231
L125.607868 313.769231L127.844941 313.769231L129.223362 313.769231
L132.340817 313.769231L134.112594 313.769231L137.349596 313.769231"/>
</g>
<g id="line2d57">
<path style="fill: none; stroke: #0000ff; stroke-width: 1.500000; stroke-linejoin: round; stroke-linecap: square;  opacity: 1.000000" clip-path="url(#paf7ee6c9eefab4474b66e77f2ed11cd9)" d="M138.326263 258.384615L138.353063 258.384615L138.406664 258.384615
L138.513864 258.384615L138.728265 258.384615L139.540775 258.384615
L141.178981 258.384615L142.163138 258.384615L144.257046 258.384615
L146.465499 258.384615L148.642118 258.384615L152.489337 258.384615
L152.951563 258.384615L156.332274 258.384615L157.916016 258.384615
L161.133753 258.384615L162.712607 258.384615L165.198472 258.384615
L165.664623 258.384615L169.522615 258.384615L170.131762 258.384615
L173.177347 258.384615L175.163917 258.384615L178.140345 258.384615
L180.364670 258.384615L182.254474 258.384615L184.240809 258.384615
L186.771804 258.384615L188.134222 258.384615L190.183454 258.384615
L192.489435 258.384615L194.438670 258.384615L196.068971 258.384615
L197.891002 258.384615"/>
</g>
<g id="line2d58">
<path style="fill: none; stroke: #0000ff; stroke-width: 1.500000; stroke-linejoin: round; stroke-linecap: square;  opacity: 1.000000" clip-path="url(#paf7ee6c9eefab4474b66e77f2ed11cd9)" d="M199.583687 203.000000L199.610487 203.000000L199.664088 203.000000
L199.771288 203.000000L199.985689 203.000000L201.606017 203.000000
L203.776093 203.000000L206.221858 203.000000L207.049311 203.000000
L209.189617 203.000000L212.877675 203.000000L214.087509 203.000000
L216.911359 203.000000L217.678572 203.000000L219.755943 203.000000
L222.568412 203.000000L225.872070 203.000000L226.023467 203.000000
L228.460427 203.000000L232.182653 203.000000L232.548328 203.000000
L235.790358 203.000000L237.777340 203.000000L238.968013 203.000000
L242.302706 203.000000L243.253938 203.000000L246.277549 203.000000
L249.308374 203.000000L251.288861 203.000000L253.179678 203.000000
L255.870686 203.000000L257.405618 203.000000L259.335671 203.000000
L260.385509 203.000000L260.599910 203.000000L260.707110 203.000000
L260.760711 203.000000"/>
</g>
<g id="line2d59">
<path style="fill: none; stroke: #0000ff; stroke-width: 1.500000; stroke-linejoin: round; stroke-linecap: square;  opacity: 1.000000" clip-path="url(#paf7ee6c9eefab4474b66e77f2ed11cd9)" d="M261.243113 147.615385L261.442524 147.615385L263.206047 147.615385
L265.742106 147.615385L267.634590 147.615385L269.691493 147.615385
L273.208572 147.615385L275.328851 147.615385L276.278862 147.615385
L278.261527 147.615385L281.120572 147.615385L283.626540 147.615385
L284.338019 147.615385L287.827086 147.615385L290.392029 147.615385
L291.330065 147.615385L294.497736 147.615385L295.537519 147.615385
L298.723943 147.615385L300.577842 147.615385L302.494574 147.615385
L303.701205 147.615385L306.024892 147.615385L307.817039 147.615385
L311.499300 147.615385L313.977864 147.615385L316.239634 147.615385
L316.940221 147.615385L320.345355 147.615385L321.642933 147.615385
L321.837529 147.615385L322.003281 147.615385L322.044719 147.615385"/>
</g>
<g id="line2d60">
<path style="fill: none; stroke: #0000ff; stroke-width: 1.500000; stroke-linejoin: round; stroke-linecap: square;  opacity: 1.000000" clip-path="url(#paf7ee6c9eefab4474b66e77f2ed11cd9)" d="M322.169033 92.230769L322.500537 92.230769L324.708473 92.230769
L326.136799 92.230769L328.310814 92.230769L330.562834 92.230769
L331.669913 92.230769L334.650998 92.230769L337.727415 92.230769
L338.295479 92.230769L341.263403 92.230769L343.507093 92.230769
L344.578246 92.230769L347.805628 92.230769L350.222235 92.230769
L352.610009 92.230769L354.806831 92.230769L355.270269 92.230769
L359.199717 92.230769L360.515103 92.230769L363.549611 92.230769
L364.620411 92.230769L367.412618 92.230769L369.102333 92.230769
L370.436402 92.230769L373.009249 92.230769L374.768683 92.230769
L378.367809 92.230769L379.101128 92.230769L382.820763 92.230769
L382.900357 92.230769L383.114758 92.230769L383.221958 92.230769
L383.275559 92.230769"/>
</g>
<g id="line2d61">
<path style="fill: none; stroke: #0000ff; stroke-width: 1.500000; stroke-linejoin: round; stroke-linecap: square;  opacity: 1.000000" clip-path="url(#paf7ee6c9eefab4474b66e77f2ed11cd9)" d="M383.757961 36.846154L384.558759 36.846154L386.994445 36.846154
L389.395903 36.846154L391.625411 36.846154L393.069758 36.846154
L394.807919 36.846154L397.081758 36.846154L398.615691 36.846154
L401.033639 36.846154L404.582303 36.846154L406.395333 36.846154
L407.603572 36.846154L411.029517 36.846154L411.553165 36.846154
L413.421104 36.846154L416.809049 36.846154L418.425659 36.846154
L421.610128 36.846154L422.334344 36.846154L425.034574 36.846154
L426.941529 36.846154L429.955216 36.846154L431.754202 36.846154
L434.197810 36.846154L436.895879 36.846154L437.175176 36.846154
L440.628493 36.846154L442.076188 36.846154L444.157781 36.846154
L444.372182 36.846154L444.479382 36.846154L444.532982 36.846154
L444.559783 36.846154"/>
</g>
<g id="line2d62">
<path style="fill: none; stroke: #0000ff; stroke-width: 1.500000; stroke-linejoin: round; stroke-linecap: square;  opacity: 1.000000" clip-path="url(#paf7ee6c9eefab4474b66e77f2ed11cd9)" d="M445.015385 -18.538462"/>
</g>
<g id="CircleCollection1">
<defs>
<path id="coll0_0_edec3ff163627cfd9cd42af8e6a8dbfc" d="M0.000000 3.784699C1.003714 3.784699 1.966453 3.385919 2.676186 2.676186
C3.385919 1.966453 3.784699 1.003714 3.784699 0.000000
C3.784699 -1.003714 3.385919 -1.966453 2.676186 -2.676186
C1.966453 -3.385919 1.003714 -3.784699 0.000000 -3.784699
C-1.003714 -3.784699 -1.966453 -3.385919 -2.676186 -2.676186
C-3.385919 -1.966453 -3.784699 -1.003714 -3.784699 0.000000
C-3.784699 1.003714 -3.385919 1.966453 -2.676186 2.676186
C-1.966453 3.385919 -1.003714 3.784699 0.000000 3.784699z"/>
</defs>
<g clip-path="url(#paf7ee6c9eefab4474b66e77f2ed11cd9)"><use style="fill: #0000ff; opacity: 1.000000" xlink:href="#coll0_0_edec3ff163627cfd9cd42af8e6a8dbfc" x="77.042039" y="313.769231"/>
</g></g>
<g id="CircleCollection2">
<defs>
<path id="coll1_0_edec3ff163627cfd9cd42af8e6a8dbfc" d="M0.000000 3.784699C1.003714 3.784699 1.966453 3.385919 2.676186 2.676186
C3.385919 1.966453 3.784699 1.003714 3.784699 0.000000
C3.784699 -1.003714 3.385919 -1.966453 2.676186 -2.676186
C1.966453 -3.385919 1.003714 -3.784699 0.000000 -3.784699
C-1.003714 -3.784699 -1.966453 -3.385919 -2.676186 -2.676186
C-3.385919 -1.966453 -3.784699 -1.003714 -3.784699 0.000000
C-3.784699 1.003714 -3.385919 1.966453 -2.676186 2.676186
C-1.966453 3.385919 -1.003714 3.784699 0.000000 3.784699z"/>
</defs>
<g clip-path="url(#paf7ee6c9eefab4474b66e77f2ed11cd9)"><use style="fill: #0000ff; opacity: 1.000000" xlink:href="#coll1_0_edec3ff163627cfd9cd42af8e6a8dbfc" x="138.299463" y="313.769231"/>
</g></g>
<g id="CircleCollection3">
<defs>
<path id="coll2_0_edec3ff163627cfd9cd42af8e6a8dbfc" d="M0.000000 3.784699C1.003714 3.784699 1.966453 3.385919 2.676186 2.676186
C3.385919 1.966453 3.784699 1.003714 3.784699 0.000000
C3.784699 -1.003714 3.385919 -1.966453 2.676186 -2.676186
C1.966453 -3.385919 1.003714 -3.784699 0.000000 -3.784699
C-1.003714 -3.784699 -1.966453 -3.385919 -2.676186 -2.676186
C-3.385919 -1.966453 -3.784699 -1.003714 -3.784699 0.000000
C-3.784699 1.003714 -3.385919 1.966453 -2.676186 2.676186
C-1.966453 3.385919 -1.003714 3.784699 0.000000 3.784699z"/>
</defs>
<g clip-path="url(#paf7ee6c9eefab4474b66e77f2ed11cd9)"><use style="fill: #0000ff; opacity: 1.000000" xlink:href="#coll2_0_edec3ff163627cfd9cd42af8e6a8dbfc" x="199.556887" y="203.000000"/>
</g></g>
<g id="CircleCollection4">
<defs>
<path id="coll3_0_edec3ff163627cfd9cd42af8e6a8dbfc" d="M0.000000 3.784699C1.003714 3.784699 1.966453 3.385919 2.676186 2.676186
C3.385919 1.966453 3.784699 1.003714 3.784699 0.000000
C3.784699 -1.003714 3.385919 -1.966453 2.676186 -2.676186
C1.966453 -3.385919 1.003714 -3.784699 0.000000 -3.784699
C-1.003714 -3.784699 -1.966453 -3.385919 -2.676186 -2.676186
C-3.385919 -1.966453 -3.784699 -1.003714 -3.784699 0.000000
C-3.784699 1.003714 -3.385919 1.966453 -2.676186 2.676186
C-1.966453 3.385919 -1.003714 3.784699 0.000000 3.784699z"/>
</defs>
<g clip-path="url(#paf7ee6c9eefab4474b66e77f2ed11cd9)"><use style="fill: #0000ff; opacity: 1.000000" xlink:href="#coll3_0_edec3ff163627cfd9cd42af8e6a8dbfc" x="260.814311" y="203.000000"/>
</g></g>
<g id="CircleCollection5">
<defs>
<path id="coll4_0_edec3ff163627cfd9cd42af8e6a8dbfc" d="M0.000000 3.784699C1.003714 3.784699 1.966453 3.385919 2.676186 2.676186
C3.385919 1.966453 3.784699 1.003714 3.784699 0.000000
C3.784699 -1.003714 3.385919 -1.966453 2.676186 -2.676186
C1.966453 -3.385919 1.003714 -3.784699 0.000000 -3.784699
C-1.003714 -3.784699 -1.966453 -3.385919 -2.676186 -2.676186
C-3.385919 -1.966453 -3.784699 -1.003714 -3.784699 0.000000
C-3.784699 1.003714 -3.385919 1.966453 -2.676186 2.676186
C-1.966453 3.385919 -1.003714 3.784699 0.000000 3.784699z"/>
</defs>
<g clip-path="url(#paf7ee6c9eefab4474b66e77f2ed11cd9)"><use style="fill: #0000ff; opacity: 1.000000" xlink:href="#coll4_0_edec3ff163627cfd9cd42af8e6a8dbfc" x="322.071735" y="92.230769"/>
</g></g>
<g id="CircleCollection6">
<defs>
<path id="coll5_0_edec3ff163627cfd9cd42af8e6a8dbfc" d="M0.000000 3.784699C1.003714 3.784699 1.966453 3.385919 2.676186 2.676186
C3.385919 1.966453 3.784699 1.003714 3.784699 0.000000
C3.784699 -1.003714 3.385919 -1.966453 2.676186 -2.676186
C1.966453 -3.385919 1.003714 -3.784699 0.000000 -3.784699
C-1.003714 -3.784699 -1.966453 -3.385919 -2.676186 -2.676186
C-3.385919 -1.966453 -3.784699 -1.003714 -3.784699 0.000000
C-3.784699 1.003714 -3.385919 1.966453 -2.676186 2.676186
C-1.966453 3.385919 -1.003714 3.784699 0.000000 3.784699z"/>
</defs>
<g clip-path="url(#paf7ee6c9eefab4474b66e77f2ed11cd9)"><use style="fill: #0000ff; opacity: 1.000000" xlink:href="#coll5_0_edec3ff163627cfd9cd42af8e6a8dbfc" x="383.329159" y="92.230769"/>
</g></g>
<g id="CircleCollection7">
<defs>
<path id="coll6_0_edec3ff163627cfd9cd42af8e6a8dbfc" d="M0.000000 3.784699C1.003714 3.784699 1.966453 3.385919 2.676186 2.676186
C3.385919 1.966453 3.784699 1.003714 3.784699 0.000000
C3.784699 -1.003714 3.385919 -1.966453 2.676186 -2.676186
C1.966453 -3.385919 1.003714 -3.784699 0.000000 -3.784699
C-1.003714 -3.784699 -1.966453 -3.385919 -2.676186 -2.676186
C-3.385919 -1.966453 -3.784699 -1.003714 -3.784699 0.000000
C-3.784699 1.003714 -3.385919 1.966453 -2.676186 2.676186
C-1.966453 3.385919 -1.003714 3.784699 0.000000 3.784699z"/>
</defs>
<g clip-path="url(#paf7ee6c9eefab4474b66e77f2ed11cd9)"><use style="fill: #0000ff; opacity: 1.000000" xlink:href="#coll6_0_edec3ff163627cfd9cd42af8e6a8dbfc" x="15.784615" y="369.153846"/>
</g></g>
<g id="CircleCollection8">
<defs>
<path id="coll7_0_edec3ff163627cfd9cd42af8e6a8dbfc" d="M0.000000 3.784699C1.003714 3.784699 1.966453 3.385919 2.676186 2.676186
C3.385919 1.966453 3.784699 1.003714 3.784699 0.000000
C3.784699 -1.003714 3.385919 -1.966453 2.676186 -2.676186
C1.966453 -3.385919 1.003714 -3.784699 0.000000 -3.784699
C-1.003714 -3.784699 -1.966453 -3.385919 -2.676186 -2.676186
C-3.385919 -1.966453 -3.784699 -1.003714 -3.784699 0.000000
C-3.784699 1.003714 -3.385919 1.966453 -2.676186 2.676186
C-1.966453 3.385919 -1.003714 3.784699 0.000000 3.784699z"/>
</defs>
<g clip-path="url(#paf7ee6c9eefab4474b66e77f2ed11cd9)"><use style="fill: #0000ff; opacity: 1.000000" xlink:href="#coll7_0_edec3ff163627cfd9cd42af8e6a8dbfc" x="77.042039" y="369.153846"/>
</g></g>
<g id="CircleCollection9">
<defs>
<path id="coll8_0_edec3ff163627cfd9cd42af8e6a8dbfc" d="M0.000000 3.784699C1.003714 3.784699 1.966453 3.385919 2.676186 2.676186
C3.385919 1.966453 3.784699 1.003714 3.784699 0.000000
C3.784699 -1.003714 3.385919 -1.966453 2.676186 -2.676186
C1.966453 -3.385919 1.003714 -3.784699 0.000000 -3.784699
C-1.003714 -3.784699 -1.966453 -3.385919 -2.676186 -2.676186
C-3.385919 -1.966453 -3.784699 -1.003714 -3.784699 0.000000
C-3.784699 1.003714 -3.385919 1.966453 -2.676186 2.676186
C-1.966453 3.385919 -1.003714 3.784699 0.000000 3.784699z"/>
</defs>
<g clip-path="url(#paf7ee6c9eefab4474b66e77f2ed11cd9)"><use style="fill: #0000ff; opacity: 1.000000" xlink:href="#coll8_0_edec3ff163627cfd9cd42af8e6a8dbfc" x="138.299463" y="258.384615"/>
</g></g>
<g id="CircleCollection10">
<defs>
<path id="coll9_0_edec3ff163627cfd9cd42af8e6a8dbfc" d="M0.000000 3.784699C1.003714 3.784699 1.966453 3.385919 2.676186 2.676186
C3.385919 1.966453 3.784699 1.003714 3.784699 0.000000
C3.784699 -1.003714 3.385919 -1.966453 2.676186 -2.676186
C1.966453 -3.385919 1.003714 -3.784699 0.000000 -3.784699
C-1.003714 -3.784699 -1.966453 -3.385919 -2.676186 -2.676186
C-3.385919 -1.966453 -3.784699 -1.003714 -3.784699 0.000000
C-3.784699 1.003714 -3.385919 1.966453 -2.676186 2.676186
C-1.966453 3.385919 -1.003714 3.784699 0.000000 3.784699z"/>
</defs>
<g clip-path="url(#paf7ee6c9eefab4474b66e77f2ed11cd9)"><use style="fill: #0000ff; opacity: 1.000000" xlink:href="#coll9_0_edec3ff163627cfd9cd42af8e6a8dbfc" x="199.556887" y="258.384615"/>
</g></g>
<g id="CircleCollection11">
<defs>
<path id="colla_0_edec3ff163627cfd9cd42af8e6a8dbfc" d="M0.000000 3.784699C1.003714 3.784699 1.966453 3.385919 2.676186 2.676186
C3.385919 1.966453 3.784699 1.003714 3.784699 0.000000
C3.784699 -1.003714 3.385919 -1.966453 2.676186 -2.676186
C1.966453 -3.385919 1.003714 -3.784699 0.000000 -3.784699
C-1.003714 -3.784699 -1.966453 -3.385919 -2.676186 -2.676186
C-3.385919 -1.966453 -3.784699 -1.003714 -3.784699 0.000000
C-3.784699 1.003714 -3.385919 1.966453 -2.676186 2.676186
C-1.966453 3.385919 -1.003714 3.784699 0.000000 3.784699z"/>
</defs>
<g clip-path="url(#paf7ee6c9eefab4474b66e77f2ed11cd9)"><use style="fill: #0000ff; opacity: 1.000000" xlink:href="#colla_0_edec3ff163627cfd9cd42af8e6a8dbfc" x="260.814311" y="147.615385"/>
</g></g>
<g id="CircleCollection12">
<defs>
<path id="collb_0_edec3ff163627cfd9cd42af8e6a8dbfc" d="M0.000000 3.784699C1.003714 3.784699 1.966453 3.385919 2.676186 2.676186
C3.385919 1.966453 3.784699 1.003714 3.784699 0.000000
C3.784699 -1.003714 3.385919 -1.966453 2.676186 -2.676186
C1.966453 -3.385919 1.003714 -3.784699 0.000000 -3.784699
C-1.003714 -3.784699 -1.966453 -3.385919 -2.676186 -2.676186
C-3.385919 -1.966453 -3.784699 -1.003714 -3.784699 0.000000
C-3.784699 1.003714 -3.385919 1.966453 -2.676186 2.676186
C-1.966453 3.385919 -1.003714 3.784699 0.000000 3.784699z"/>
</defs>
<g clip-path="url(#paf7ee6c9eefab4474b66e77f2ed11cd9)"><use style="fill: #0000ff; opacity: 1.000000" xlink:href="#collb_0_edec3ff163627cfd9cd42af8e6a8dbfc" x="322.071735" y="147.615385"/>
</g></g>
<g id="CircleCollection13">
<defs>
<path id="collc_0_edec3ff163627cfd9cd42af8e6a8dbfc" d="M0.000000 3.784699C1.003714 3.784699 1.966453 3.385919 2.676186 2.676186
C3.385919 1.966453 3.784699 1.003714 3.784699 0.000000
C3.784699 -1.003714 3.385919 -1.966453 2.676186 -2.676186
C1.966453 -3.385919 1.003714 -3.784699 0.000000 -3.784699
C-1.003714 -3.784699 -1.966453 -3.385919 -2.676186 -2.676186
C-3.385919 -1.966453 -3.784699 -1.003714 -3.784699 0.000000
C-3.784699 1.003714 -3.385919 1.966453 -2.676186 2.676186
C-1.966453 3.385919 -1.003714 3.784699 0.000000 3.784699z"/>
</defs>
<g clip-path="url(#paf7ee6c9eefab4474b66e77f2ed11cd9)"><use style="fill: #0000ff; opacity: 1.000000" xlink:href="#collc_0_edec3ff163627cfd9cd42af8e6a8dbfc" x="383.329159" y="36.846154"/>
</g></g>
<g id="CircleCollection14">
<defs>
<path id="colld_0_edec3ff163627cfd9cd42af8e6a8dbfc" d="M0.000000 3.784699C1.003714 3.784699 1.966453 3.385919 2.676186 2.676186
C3.385919 1.966453 3.784699 1.003714 3.784699 0.000000
C3.784699 -1.003714 3.385919 -1.966453 2.676186 -2.676186
C1.966453 -3.385919 1.003714 -3.784699 0.000000 -3.784699
C-1.003714 -3.784699 -1.966453 -3.385919 -2.676186 -2.676186
C-3.385919 -1.966453 -3.784699 -1.003714 -3.784699 0.000000
C-3.784699 1.003714 -3.385919 1.966453 -2.676186 2.676186
C-1.966453 3.385919 -1.003714 3.784699 0.000000 3.784699z"/>
</defs>
<g clip-path="url(#paf7ee6c9eefab4474b66e77f2ed11cd9)"><use style="fill: #0000ff; opacity: 1.000000" xlink:href="#colld_0_edec3ff163627cfd9cd42af8e6a8dbfc" x="444.586583" y="36.846154"/>
</g></g>
<g id="CircleCollection15">
<defs>
<path id="colle_0_463aa1f94d5306dc31e18f58b56157fb" d="M0.000000 2.523133C0.669143 2.523133 1.310969 2.257279 1.784124 1.784124
C2.257279 1.310969 2.523133 0.669143 2.523133 0.000000
C2.523133 -0.669143 2.257279 -1.310969 1.784124 -1.784124
C1.310969 -2.257279 0.669143 -2.523133 0.000000 -2.523133
C-0.669143 -2.523133 -1.310969 -2.257279 -1.784124 -1.784124
C-2.257279 -1.310969 -2.523133 -0.669143 -2.523133 0.000000
C-2.523133 0.669143 -2.257279 1.310969 -1.784124 1.784124
C-1.310969 2.257279 -0.669143 2.523133 0.000000 2.523133z"/>
</defs>
<g clip-path="url(#paf7ee6c9eefab4474b66e77f2ed11cd9)"><use style="fill: #ffffff; opacity: 1.000000" xlink:href="#colle_0_463aa1f94d5306dc31e18f58b56157fb" x="15.784615" y="369.153846"/>
</g></g>
<g id="CircleCollection16">
<defs>
<path id="collf_0_463aa1f94d5306dc31e18f58b56157fb" d="M0.000000 2.523133C0.669143 2.523133 1.310969 2.257279 1.784124 1.784124
C2.257279 1.310969 2.523133 0.669143 2.523133 0.000000
C2.523133 -0.669143 2.257279 -1.310969 1.784124 -1.784124
C1.310969 -2.257279 0.669143 -2.523133 0.000000 -2.523133
C-0.669143 -2.523133 -1.310969 -2.257279 -1.784124 -1.784124
C-2.257279 -1.310969 -2.523133 -0.669143 -2.523133 0.000000
C-2.523133 0.669143 -2.257279 1.310969 -1.784124 1.784124
C-1.310969 2.257279 -0.669143 2.523133 0.000000 2.523133z"/>
</defs>
<g clip-path="url(#paf7ee6c9eefab4474b66e77f2ed11cd9)"><use style="fill: #ffffff; opacity: 1.000000" xlink:href="#collf_0_463aa1f94d5306dc31e18f58b56157fb" x="77.042039" y="369.153846"/>
</g></g>
<g id="CircleCollection17">
<defs>
<path id="coll10_0_463aa1f94d5306dc31e18f58b56157fb" d="M0.000000 2.523133C0.669143 2.523133 1.310969 2.257279 1.784124 1.784124
C2.257279 1.310969 2.523133 0.669143 2.523133 0.000000
C2.523133 -0.669143 2.257279 -1.310969 1.784124 -1.784124
C1.310969 -2.257279 0.669143 -2.523133 0.000000 -2.523133
C-0.669143 -2.523133 -1.310969 -2.257279 -1.784124 -1.784124
C-2.257279 -1.310969 -2.523133 -0.669143 -2.523133 0.000000
C-2.523133 0.669143 -2.257279 1.310969 -1.784124 1.784124
C-1.310969 2.257279 -0.669143 2.523133 0.000000 2.523133z"/>
</defs>
<g clip-path="url(#paf7ee6c9eefab4474b66e77f2ed11cd9)"><use style="fill: #ffffff; opacity: 1.000000" xlink:href="#coll10_0_463aa1f94d5306dc31e18f58b56157fb" x="138.299463" y="258.384615"/>
</g></g>
<g id="CircleCollection18">
<defs>
<path id="coll11_0_463aa1f94d5306dc31e18f58b56157fb" d="M0.000000 2.523133C0.669143 2.523133 1.310969 2.257279 1.784124 1.784124
C2.257279 1.310969 2.523133 0.669143 2.523133 0.000000
C2.523133 -0.669143 2.257279 -1.310969 1.784124 -1.784124
C1.310969 -2.257279 0.669143 -2.523133 0.000000 -2.523133
C-0.669143 -2.523133 -1.310969 -2.257279 -1.784124 -1.784124
C-2.257279 -1.310969 -2.523133 -0.669143 -2.523133 0.000000
C-2.523133 0.669143 -2.257279 1.310969 -1.784124 1.784124
C-1.310969 2.257279 -0.669143 2.523133 0.000000 2.523133z"/>
</defs>
<g clip-path="url(#paf7ee6c9eefab4474b66e77f2ed11cd9)"><use style="fill: #ffffff; opacity: 1.000000" xlink:href="#coll11_0_463aa1f94d5306dc31e18f58b56157fb" x="199.556887" y="258.384615"/>
</g></g>
<g id="CircleCollection19">
<defs>
<path id="coll12_0_463aa1f94d5306dc31e18f58b56157fb" d="M0.000000 2.523133C0.669143 2.523133 1.310969 2.257279 1.784124 1.784124
C2.257279 1.310969 2.523133 0.669143 2.523133 0.000000
C2.523133 -0.669143 2.257279 -1.310969 1.784124 -1.784124
C1.310969 -2.257279 0.669143 -2.523133 0.000000 -2.523133
C-0.669143 -2.523133 -1.310969 -2.257279 -1.784124 -1.784124
C-2.257279 -1.310969 -2.523133 -0.669143 -2.523133 0.000000
C-2.523133 0.669143 -2.257279 1.310969 -1.784124 1.784124
C-1.310969 2.257279 -0.669143 2.523133 0.000000 2.523133z"/>
</defs>
<g clip-path="url(#paf7ee6c9eefab4474b66e77f2ed11cd9)"><use style="fill: #ffffff; opacity: 1.000000" xlink:href="#coll12_0_463aa1f94d5306dc31e18f58b56157fb" x="260.814311" y="147.615385"/>
</g></g>
<g id="CircleCollection20">
<defs>
<path id="coll13_0_463aa1f94d5306dc31e18f58b56157fb" d="M0.000000 2.523133C0.669143 2.523133 1.310969 2.257279 1.784124 1.784124
C2.257279 1.310969 2.523133 0.669143 2.523133 0.000000
C2.523133 -0.669143 2.257279 -1.310969 1.784124 -1.784124
C1.310969 -2.257279 0.669143 -2.523133 0.000000 -2.523133
C-0.669143 -2.523133 -1.310969 -2.257279 -1.784124 -1.784124
C-2.257279 -1.310969 -2.523133 -0.669143 -2.523133 0.000000
C-2.523133 0.669143 -2.257279 1.310969 -1.784124 1.784124
C-1.310969 2.257279 -0.669143 2.523133 0.000000 2.523133z"/>
</defs>
<g clip-path="url(#paf7ee6c9eefab4474b66e77f2ed11cd9)"><use style="fill: #ffffff; opacity: 1.000000" xlink:href="#coll13_0_463aa1f94d5306dc31e18f58b56157fb" x="322.071735" y="147.615385"/>
</g></g>
<g id="CircleCollection21">
<defs>
<path id="coll14_0_463aa1f94d5306dc31e18f58b56157fb" d="M0.000000 2.523133C0.669143 2.523133 1.310969 2.257279 1.784124 1.784124
C2.257279 1.310969 2.523133 0.669143 2.523133 0.000000
C2.523133 -0.669143 2.257279 -1.310969 1.784124 -1.784124
C1.310969 -2.257279 0.669143 -2.523133 0.000000 -2.523133
C-0.669143 -2.523133 -1.310969 -2.257279 -1.784124 -1.784124
C-2.257279 -1.310969 -2.523133 -0.669143 -2.523133 0.000000
C-2.523133 0.669143 -2.257279 1.310969 -1.784124 1.784124
C-1.310969 2.257279 -0.669143 2.523133 0.000000 2.523133z"/>
</defs>
<g clip-path="url(#paf7ee6c9eefab4474b66e77f2ed11cd9)"><use style="fill: #ffffff; opacity: 1.000000" xlink:href="#coll14_0_463aa1f94d5306dc31e18f58b56157fb" x="383.329159" y="36.846154"/>
</g></g>
<g id="CircleCollection22">
<defs>
<path id="coll15_0_463aa1f94d5306dc31e18f58b56157fb" d="M0.000000 2.523133C0.669143 2.523133 1.310969 2.257279 1.784124 1.784124
C2.257279 1.310969 2.523133 0.669143 2.523133 0.000000
C2.523133 -0.669143 2.257279 -1.310969 1.784124 -1.784124
C1.310969 -2.257279 0.669143 -2.523133 0.000000 -2.523133
C-0.669143 -2.523133 -1.310969 -2.257279 -1.784124 -1.784124
C-2.257279 -1.310969 -2.523133 -0.669143 -2.523133 0.000000
C-2.523133 0.669143 -2.257279 1.310969 -1.784124 1.784124
C-1.310969 2.257279 -0.669143 2.523133 0.000000 2.523133z"/>
</defs>
<g clip-path="url(#paf7ee6c9eefab4474b66e77f2ed11cd9)"><use style="fill: #ffffff; opacity: 1.000000" xlink:href="#coll15_0_463aa1f94d5306dc31e18f58b56157fb" x="444.586583" y="36.846154"/>
</g></g>
</g>
</g>
</svg>
